# xmcd
#
# Track frame offsets:
#	150
#	16412
#	30421
#	48098
#	65512
#	83795
#	107806
#	123993
#	137056
#	158250
#	176495
#
# Disc length: 2602 seconds
# Revision: 7
# Processed by: cddbd v1.5.2PL0 Copyright (c) Steve Scherf et al.
# Submitted via: dBpowerAMP V12.0
#
DISCID=7e0a280b
DTITLE=Alison Krauss - Paper Airplane
DYEAR=2011
DGENRE=Bluegrass
TTITLE0=Paper Airplane
TTITLE1=Dust Bowl Children
TTITLE2=Lie Awake
TTITLE3=Lay My Burden Down
TTITLE4=My Love Follows You Where You Go
TTITLE5=Dimming Of The Day
TTITLE6=On The Outside Looking In
TTITLE7=Miles To Go
TTITLE8=Sinking Stone
TTITLE9=Bonita And Bill Butler
TTITLE10=My Opening Farewell
EXTD=
EXTT0=
EXTT1=
EXTT2=
EXTT3=
EXTT4=
EXTT5=
EXTT6=
EXTT7=
EXTT8=
EXTT9=
EXTT10=
PLAYORDER=
